HIERARCHY
ROOT Hips
{
    OFFSET 0.000000 0.000000 0.000000
    CHANNELS 6 Xposition Yposition Zposition Zrotation Yrotation Xrotation
    JOINT Chest
    {
        OFFSET 0.000000 1.634758 -0.000000
        CHANNELS 3 Zrotation Yrotation Xrotation
        JOINT Chest2
        {
            OFFSET 0.000000 2.197341 0.000000
            CHANNELS 3 Zrotation Yrotation Xrotation
            JOINT Neck
            {
                OFFSET 0.000000 0.961544 0.000000
                CHANNELS 3 Zrotation Yrotation Xrotation
                JOINT Head
                {
                    OFFSET 0.000000 0.632542 -0.032565
                    CHANNELS 3 Zrotation Yrotation Xrotation
                    End Site
                    {
                        OFFSET -0.000001 0.439502 2.922845
                    }
                }
            }
            JOINT LeftCollar
            {
                OFFSET 0.167536 0.778237 -0.168280
                CHANNELS 3 Zrotation Yrotation Xrotation
                JOINT LeftShoulder
                {
                    OFFSET 0.831514 -0.002900 0.006458
                    CHANNELS 3 Zrotation Yrotation Xrotation
                    JOINT LeftElbow
                    {
                        OFFSET 2.272872 -0.026639 0.059314
                        CHANNELS 3 Zrotation Yrotation Xrotation
                        JOINT LeftWrist
                        {
                            OFFSET 2.081982 -0.024402 0.054333
                            CHANNELS 3 Zrotation Yrotation Xrotation
                            JOINT LeftHandThumb1
                            {
                                OFFSET 0.218903 -0.128645 0.283837
                                CHANNELS 3 Zrotation Yrotation Xrotation
                                JOINT LeftHandThumb2
                                {
                                    OFFSET 0.137157 -0.025101 0.077902
                                    CHANNELS 3 Zrotation Yrotation Xrotation
                                    JOINT LeftHandThumb3
                                    {
                                        OFFSET 0.165861 -0.067014 0.039226
                                        CHANNELS 3 Zrotation Yrotation Xrotation
                                        End Site
                                        {
                                            OFFSET 0.241157 -0.045065 0.107930
                                        }
                                    }
                                }
                            }
                            JOINT LeftHandFore1
                            {
                                OFFSET 0.767340 -0.016076 0.196678
                                CHANNELS 3 Zrotation Yrotation Xrotation
                                JOINT LeftHandFore2
                                {
                                    OFFSET 0.215173 -0.024035 0.010864
                                    CHANNELS 3 Zrotation Yrotation Xrotation
                                    JOINT LeftHandFore3
                                    {
                                        OFFSET 0.127998 -0.018363 0.006493
                                        CHANNELS 3 Zrotation Yrotation Xrotation
                                        End Site
                                        {
                                            OFFSET 0.191872 -0.022849 0.005461
                                        }
                                    }
                                }
                            }
                            JOINT LeftHandMiddle1
                            {
                                OFFSET 0.709887 -0.008320 0.018526
                                CHANNELS 3 Zrotation Yrotation Xrotation
                                JOINT LeftHandMiddle2
                                {
                                    OFFSET 0.243305 -0.028680 0.006624
                                    CHANNELS 3 Zrotation Yrotation Xrotation
                                    JOINT LeftHandMiddle3
                                    {
                                        OFFSET 0.145223 -0.016669 0.003951
                                        CHANNELS 3 Zrotation Yrotation Xrotation
                                        End Site
                                        {
                                            OFFSET 0.233621 -0.031666 0.006995
                                        }
                                    }
                                }
                            }
                            JOINT LeftHandRing1
                            {
                                OFFSET 0.743817 -0.005823 -0.153668
                                CHANNELS 3 Zrotation Yrotation Xrotation
                                JOINT LeftHandRing2
                                {
                                    OFFSET 0.349394 -0.050632 -0.009675
                                    CHANNELS 3 Zrotation Yrotation Xrotation
                                    JOINT LeftHandRing3
                                    {
                                        OFFSET 0.134332 -0.023631 0.001421
                                        CHANNELS 3 Zrotation Yrotation Xrotation
                                        End Site
                                        {
                                            OFFSET 0.116893 -0.027460 0.001278
                                        }
                                    }
                                }
                            }
                            JOINT LeftHandLittle1
                            {
                                OFFSET 0.689408 -0.053302 -0.308304
                                CHANNELS 3 Zrotation Yrotation Xrotation
                                JOINT LeftHandLittle2
                                {
                                    OFFSET 0.193251 -0.018757 -0.018874
                                    CHANNELS 3 Zrotation Yrotation Xrotation
                                    JOINT LeftHandLittle3
                                    {
                                        OFFSET 0.116994 -0.025997 -0.011519
                                        CHANNELS 3 Zrotation Yrotation Xrotation
                                        End Site
                                        {
                                            OFFSET 0.189726 -0.012367 -0.011818
                                        }
                                    }
                                }
                            }
                        }
                    }
                }
            }
            JOINT RightCollar
            {
                OFFSET -0.167536 0.778237 -0.168280
                CHANNELS 3 Zrotation Yrotation Xrotation
                JOINT RightShoulder
                {
                    OFFSET -0.831514 -0.002900 0.006457
                    CHANNELS 3 Zrotation Yrotation Xrotation
                    JOINT RightElbow
                    {
                        OFFSET -2.272872 -0.026639 0.059313
                        CHANNELS 3 Zrotation Yrotation Xrotation
                        JOINT RightWrist
                        {
                            OFFSET -2.081982 -0.024402 0.054331
                            CHANNELS 3 Zrotation Yrotation Xrotation
                            JOINT RightHandThumb1
                            {
                                OFFSET -0.218911 -0.128571 0.283837
                                CHANNELS 3 Zrotation Yrotation Xrotation
                                JOINT RightHandThumb2
                                {
                                    OFFSET -0.137157 -0.025101 0.077902
                                    CHANNELS 3 Zrotation Yrotation Xrotation
                                    JOINT RightHandThumb3
                                    {
                                        OFFSET -0.165861 -0.067014 0.039226
                                        CHANNELS 3 Zrotation Yrotation Xrotation
                                        End Site
                                        {
                                            OFFSET -0.229436 -0.065997 0.121819
                                        }
                                    }
                                }
                            }
                            JOINT RightHandFore1
                            {
                                OFFSET -0.767344 -0.015991 0.196679
                                CHANNELS 3 Zrotation Yrotation Xrotation
                                JOINT RightHandFore2
                                {
                                    OFFSET -0.215182 -0.023988 0.010864
                                    CHANNELS 3 Zrotation Yrotation Xrotation
                                    JOINT RightHandFore3
                                    {
                                        OFFSET -0.127999 -0.018333 0.006493
                                        CHANNELS 3 Zrotation Yrotation Xrotation
                                        End Site
                                        {
                                            OFFSET -0.191454 -0.022769 0.013914
                                        }
                                    }
                                }
                            }
                            JOINT RightHandMiddle1
                            {
                                OFFSET -0.709887 -0.008302 0.018525
                                CHANNELS 3 Zrotation Yrotation Xrotation
                                JOINT RightHandMiddle2
                                {
                                    OFFSET -0.243299 -0.028704 0.006624
                                    CHANNELS 3 Zrotation Yrotation Xrotation
                                    JOINT RightHandMiddle3
                                    {
                                        OFFSET -0.145226 -0.016685 0.003951
                                        CHANNELS 3 Zrotation Yrotation Xrotation
                                        End Site
                                        {
                                            OFFSET -0.233653 -0.031672 0.005780
                                        }
                                    }
                                }
                            }
                            JOINT RightHandRing1
                            {
                                OFFSET -0.743819 -0.005785 -0.153669
                                CHANNELS 3 Zrotation Yrotation Xrotation
                                JOINT RightHandRing2
                                {
                                    OFFSET -0.349398 -0.050607 -0.009675
                                    CHANNELS 3 Zrotation Yrotation Xrotation
                                    JOINT RightHandRing3
                                    {
                                        OFFSET -0.134041 -0.023657 -0.008853
                                        CHANNELS 3 Zrotation Yrotation Xrotation
                                        End Site
                                        {
                                            OFFSET -0.116640 -0.027483 -0.007747
                                        }
                                    }
                                }
                            }
                            JOINT RightHandLittle1
                            {
                                OFFSET -0.689403 -0.053298 -0.308303
                                CHANNELS 3 Zrotation Yrotation Xrotation
                                JOINT RightHandLittle2
                                {
                                    OFFSET -0.193254 -0.018751 -0.018875
                                    CHANNELS 3 Zrotation Yrotation Xrotation
                                    JOINT RightHandLittle3
                                    {
                                        OFFSET -0.116992 -0.025993 -0.011520
                                        CHANNELS 3 Zrotation Yrotation Xrotation
                                        End Site
                                        {
                                            OFFSET -0.188440 -0.012318 -0.025042
                                        }
                                    }
                                }
                            }
                        }
                    }
                }
            }
        }
    }
    JOINT LeftHip
    {
        OFFSET 0.685143 0.673822 -0.044491
        CHANNELS 3 Zrotation Yrotation Xrotation
        JOINT LeftKnee
        {
            OFFSET 0.085364 -3.750208 0.017676
            CHANNELS 3 Zrotation Yrotation Xrotation
            JOINT LeftAnkle
            {
                OFFSET 0.094583 -4.155206 0.019585
                CHANNELS 3 Zrotation Yrotation Xrotation
                JOINT LeftToe
                {
                    OFFSET -0.000000 -0.395925 0.621478
                    CHANNELS 3 Zrotation Yrotation Xrotation
                    End Site
                    {
                        OFFSET -0.000000 -0.077878 0.321152
                    }
                }
            }
        }
    }
    JOINT RightHip
    {
        OFFSET -0.685143 0.673822 -0.044492
        CHANNELS 3 Zrotation Yrotation Xrotation
        JOINT RightKnee
        {
            OFFSET -0.085364 -3.750208 0.017677
            CHANNELS 3 Zrotation Yrotation Xrotation
            JOINT RightAnkle
            {
                OFFSET -0.094583 -4.155206 0.019585
                CHANNELS 3 Zrotation Yrotation Xrotation
                JOINT RightToe
                {
                    OFFSET -0.000000 -0.395925 0.621478
                    CHANNELS 3 Zrotation Yrotation Xrotation
                    End Site
                    {
                        OFFSET -0.000000 -0.077878 0.321152
                    }
                }
            }
        }
    }
}
MOTION
Frames: 4
Frame Time: 0.033333
0.652355 8.356364 -1.114695 -169.029556 10.768965 169.109039 20.893631 5.603403 46.457897 0.296163 -0.923618 -2.911609 -4.614405 0.762301 -1.899809 0.016824 -0.326809 -1.239818 1.946592 -14.249278 -0.021241 13.491205 -61.652138 -13.941533 0.001704 -4.404665 -0.051709 156.955170 59.753834 64.590340 0.000003 0.000005 -0.000002 -41.554768 20.083412 18.941282 2.868915 40.521152 11.309620 0.055978 -25.447496 1.549060 23.473902 0.852494 -0.186521 1.543439 2.877970 -2.408857 -87.085556 -1.928629 1.121508 -97.939995 -0.413958 3.558476 -99.481125 1.675971 5.698080 -84.779556 3.919263 7.448155 -90.527267 -1.523332 1.782575 -89.606796 2.354952 6.560141 -85.645126 8.569710 12.634766 -94.323845 2.574209 4.577930 -65.232033 -1.700620 4.373303 -2.518266 15.686627 -0.095195 -16.448689 49.723347 -8.244349 -0.138841 34.298992 -0.457235 -161.411209 -59.947697 66.893402 -0.000013 0.000014 -0.000012 -9.276427 -50.489876 15.538672 32.375809 -17.716303 15.712531 0.233887 -9.229575 -0.387872 -23.407442 0.037890 -2.004370 -1.825797 2.854223 2.229671 87.085571 1.929259 1.122320 97.930496 -3.140164 0.278294 99.695541 -1.134908 -1.851602 84.779602 -3.918876 7.448226 90.336868 1.658773 -4.964143 88.938805 5.445837 -9.779003 85.645050 -8.569691 12.635189 90.682632 13.282431 -16.863337 63.198792 3.782815 -14.845170 12.052548 -1.778124 6.624566 0.153330 0.613500 28.061954 4.167728 9.876092 -28.295830 -0.000000 -0.000000 0.000003 14.008122 -1.997305 16.133095 -0.007272 -0.137558 6.054457 2.169681 6.958090 -15.929403 -0.000000 -0.000000 0.000001
0.640103 8.371201 -1.145810 -169.405716 11.184578 168.583755 21.316269 5.564249 46.211525 0.521300 -0.923127 -3.241568 -0.558880 0.784054 -0.703253 0.016246 -0.315513 0.905241 1.648826 -14.499475 -0.026835 12.223233 -64.134544 -14.228590 0.001054 -3.536767 -0.041494 158.081970 59.956158 65.534317 0.000014 0.000001 0.000007 -41.554779 20.083412 18.941282 2.868914 40.521152 11.309622 -0.054604 -21.439335 1.408846 23.473898 0.852490 -0.186516 1.543437 2.877973 -2.408860 -87.085564 -1.928622 1.121509 -97.939995 -0.413962 3.558477 -99.481125 1.675971 5.698077 -84.779556 3.919274 7.448151 -90.527267 -1.523327 1.782573 -89.606796 2.354948 6.560141 -85.645126 8.569721 12.634772 -94.323845 2.574211 4.577927 -65.232033 -1.700617 4.373304 -2.692863 15.270470 -0.097126 -16.808567 45.534073 -7.892150 -0.203559 40.122356 -0.564731 -161.838303 -60.006622 67.082031 -0.000003 0.000016 -0.000020 -9.276425 -50.489876 15.538677 32.375813 -17.716305 15.712526 0.192984 -8.170768 -0.282881 -23.407440 0.037892 -2.004369 -1.825800 2.854222 2.229673 87.085579 1.929255 1.122314 97.930504 -3.140168 0.278295 99.695541 -1.134908 -1.851606 84.779610 -3.918877 7.448222 90.336868 1.658777 -4.964143 88.938797 5.445835 -9.778998 85.645058 -8.569695 12.635184 90.682632 13.282435 -16.863333 63.198792 3.782813 -14.845170 11.513638 -1.743517 7.881626 0.140874 0.589545 26.875578 4.231936 10.476303 -27.781969 -0.000001 -0.000001 0.000000 13.455372 -2.051514 19.685192 -0.000070 -0.013514 0.593742 2.603411 7.335227 -13.418353 -0.000001 -0.000003 0.000002
0.630789 8.385404 -1.175814 -169.660370 11.448763 168.081085 21.529360 5.584723 44.858418 0.592262 -0.933631 -2.744689 3.172080 0.812906 -0.232387 0.014270 -0.277111 1.667840 1.843050 -14.531157 -0.023322 11.537861 -60.182827 -13.516267 0.024170 -15.452755 -0.185472 159.088547 60.127262 66.379623 0.000003 -0.000009 -0.000017 -41.554771 20.083418 18.941286 2.868913 40.521149 11.309622 -0.123163 -17.190626 1.219786 23.473898 0.852488 -0.186516 1.543441 2.877972 -2.408864 -87.085548 -1.928637 1.121516 -97.939995 -0.413959 3.558480 -99.481125 1.675972 5.698076 -84.779556 3.919251 7.448175 -90.527267 -1.523333 1.782577 -89.606796 2.354946 6.560146 -85.645126 8.569703 12.634787 -94.323845 2.574203 4.577938 -65.232033 -1.700618 4.373302 -2.878033 14.934400 -0.099446 -17.372093 42.480553 -7.688864 -0.246504 43.219604 -0.629600 -162.216751 -60.057621 67.250717 -0.000007 0.000013 -0.000015 -9.276427 -50.489872 15.538664 32.375813 -17.716303 15.712524 0.152664 -6.996980 -0.177128 -23.407444 0.037892 -2.004371 -1.825800 2.854221 2.229672 87.085571 1.929258 1.122314 97.930496 -3.140165 0.278298 99.695541 -1.134904 -1.851606 84.779594 -3.918875 7.448224 90.336868 1.658778 -4.964141 88.938805 5.445832 -9.779005 85.645058 -8.569688 12.635180 90.682632 13.282429 -16.863329 63.198784 3.782817 -14.845160 11.148318 -1.711460 9.018611 0.130025 0.567635 25.801342 4.090272 10.859890 -27.360573 -0.000000 -0.000001 -0.000002 13.079860 -2.049780 20.644321 -0.000000 -0.000000 0.000000 2.644345 7.672608 -13.266356 0.000000 0.000000 0.000004
0.624698 8.398822 -1.204608 -169.776993 11.541308 167.603287 21.566353 5.639767 42.303444 0.550500 -0.951175 -1.589897 7.102588 0.779538 0.178471 0.017475 -0.339427 2.310133 2.587737 -14.285635 -0.009279 15.207032 -55.647514 -15.169948 0.076979 -26.497166 -0.334297 159.936630 60.264885 67.092911 0.000008 -0.000001 -0.000006 -41.554768 20.083414 18.941278 2.868914 40.521152 11.309622 -0.147766 -12.939666 0.995249 23.473902 0.852492 -0.186518 1.543439 2.877966 -2.408857 -87.085556 -1.928640 1.121505 -97.939995 -0.413962 3.558478 -99.481125 1.675971 5.698074 -84.779549 3.919257 7.448160 -90.527267 -1.523329 1.782572 -89.606796 2.354949 6.560143 -85.645126 8.569703 12.634770 -94.323845 2.574207 4.577931 -65.232033 -1.700619 4.373304 -2.978252 14.764278 -0.100767 -17.552668 41.086796 -7.436830 -0.246519 43.220402 -0.629621 -162.533646 -60.099518 67.391502 -0.000005 0.000008 -0.000015 -9.276429 -50.489868 15.538672 32.375809 -17.716303 15.712529 0.113837 -5.752161 -0.079043 -23.407444 0.037892 -2.004367 -1.825793 2.854223 2.229672 87.085587 1.929258 1.122311 97.930496 -3.140166 0.278296 99.695541 -1.134907 -1.851605 84.779617 -3.918873 7.448218 90.336868 1.658777 -4.964138 88.938805 5.445837 -9.779004 85.645058 -8.569690 12.635180 90.682625 13.282429 -16.863335 63.198792 3.782812 -14.845170 10.981610 -1.682498 10.013455 0.121043 0.548669 24.879385 2.880256 10.695239 -27.229239 0.000000 0.000001 0.000000 12.891573 -2.041133 21.258743 0.000000 -0.000000 0.000000 2.227929 7.781239 -13.496867 -0.000001 0.000002 0.000000
